<svg xmlns="http://www.w3.org/2000/svg" width="24" height="24" viewBox="0 0 24 24">
    <g id="vuesax_broken_cardano-_ada_" data-name="vuesax/broken/cardano-(ada)"
        transform="translate(-352 -213)">
        <g id="cardano-_ada_" data-name="cardano-(ada)">
            <path id="BG_196" data-name="BG 196" d="M0,0H24V24H0Z" transform="translate(352 213)"
                fill="none" />
            <path id="Vector" d="M2,1A1,1,0,1,1,1,0,1,1,0,0,1,2,1Z"
                transform="translate(364.75 221)" fill="none" stroke="#e76f51" stroke-width="1" />
            <path id="Vector-2" data-name="Vector" d="M0,2A1,1,0,0,0,1,1,1,1,0,0,0,0,0"
                transform="translate(362.25 221)" fill="none" stroke="#e76f51"
                stroke-linecap="round" stroke-linejoin="round" stroke-width="1" />
            <path id="Vector-3" data-name="Vector" d="M2,1A1,1,0,1,1,1,0,1,1,0,0,1,2,1Z"
                transform="translate(366.5 224)" fill="none" stroke="#e76f51" stroke-width="1" />
            <path id="Vector-4" data-name="Vector"
                d="M1.5.75A.75.75,0,1,1,.75,0,.75.75,0,0,1,1.5.75Z"
                transform="translate(368.4 221.25)" fill="none" stroke="#e76f51" stroke-width="1" />
            <path id="Vector-5" data-name="Vector"
                d="M1.5.75A.75.75,0,1,1,.75,0,.75.75,0,0,1,1.5.75Z"
                transform="translate(368.4 227.25)" fill="none" stroke="#e76f51" stroke-width="1" />
            <path id="Vector-6" data-name="Vector"
                d="M1.5.75A.75.75,0,1,1,.75,0,.75.75,0,0,1,1.5.75Z"
                transform="translate(371 224.25)" fill="none" stroke="#e76f51" stroke-width="1" />
            <path id="Vector-7" data-name="Vector"
                d="M1.5.75A.75.75,0,1,1,.75,0,.75.75,0,0,1,1.5.75Z"
                transform="translate(358.05 221.25)" fill="none" stroke="#e76f51"
                stroke-width="1" />
            <path id="Vector-8" data-name="Vector"
                d="M1.5.75A.75.75,0,1,1,.75,0,.75.75,0,0,1,1.5.75Z"
                transform="translate(358.05 227.25)" fill="none" stroke="#e76f51"
                stroke-width="1" />
            <path id="Vector-9" data-name="Vector"
                d="M1.5.75A.75.75,0,1,1,.75,0,.75.75,0,0,1,1.5.75Z"
                transform="translate(355.45 224.25)" fill="none" stroke="#e76f51"
                stroke-width="1" />
            <path id="Vector-10" data-name="Vector"
                d="M1.5.75A.75.75,0,1,1,.75,0,.75.75,0,0,1,1.5.75Z"
                transform="translate(367.15 217.45)" fill="none" stroke="#e76f51"
                stroke-width="1" />
            <path id="Vector-11" data-name="Vector"
                d="M1.5.75A.75.75,0,1,1,.75,0,.75.75,0,0,1,1.5.75Z"
                transform="translate(359.35 217.45)" fill="none" stroke="#e76f51"
                stroke-width="1" />
            <path id="Vector-12" data-name="Vector"
                d="M1.5.75A.75.75,0,1,1,.75,0,.75.75,0,0,1,1.5.75Z"
                transform="translate(363.3 218.25)" fill="none" stroke="#e76f51" stroke-width="1" />
            <path id="Vector-13" data-name="Vector"
                d="M1.5.75A.75.75,0,1,1,.75,0,.75.75,0,0,1,1.5.75Z"
                transform="translate(367.15 231.25)" fill="none" stroke="#e76f51"
                stroke-width="1" />
            <path id="Vector-14" data-name="Vector"
                d="M1.5,0A.755.755,0,0,1,.75.75.755.755,0,0,1,0,0" transform="translate(359.35 232)"
                fill="none" stroke="#e76f51" stroke-linecap="round" stroke-linejoin="round"
                stroke-width="1" />
            <path id="Vector-15" data-name="Vector"
                d="M1.5.75A.75.75,0,1,1,.75,0,.75.75,0,0,1,1.5.75Z"
                transform="translate(363.3 230.45)" fill="none" stroke="#e76f51" stroke-width="1" />
            <path id="Vector-16" data-name="Vector" d="M2,1A1,1,0,1,1,1,0,1,1,0,0,1,2,1Z"
                transform="translate(359.5 224)" fill="none" stroke="#e76f51" stroke-width="1" />
            <path id="Vector-17" data-name="Vector" d="M2,1A1,1,0,1,1,1,0,1,1,0,0,1,2,1Z"
                transform="translate(361.25 227)" fill="none" stroke="#e76f51" stroke-width="1" />
            <path id="Vector-18" data-name="Vector" d="M2,1A1,1,0,0,0,0,1"
                transform="translate(364.75 227)" fill="none" stroke="#e76f51"
                stroke-linecap="round" stroke-linejoin="round" stroke-width="1" />
            <path id="Vector_13" data-name="Vector 13" d="M0,0H0"
                transform="translate(363.95 215.5) rotate(-90)" fill="none" stroke="#e76f51"
                stroke-linecap="round" stroke-linejoin="round" stroke-width="2" />
            <path id="Vector_5" data-name="Vector 5" d="M0,0H0"
                transform="translate(369.45 215.9) rotate(-90)" fill="none" stroke="#e76f51"
                stroke-linecap="round" stroke-linejoin="round" stroke-width="1.5" />
            <path id="Vector_7" data-name="Vector 7" d="M0,0H0"
                transform="translate(369.45 234.25) rotate(-90)" fill="none" stroke="#e76f51"
                stroke-linecap="round" stroke-linejoin="round" stroke-width="1.5" />
            <path id="Vector_9" data-name="Vector 9" d="M0,0H0"
                transform="translate(371.95 229.55) rotate(-90)" fill="none" stroke="#e76f51"
                stroke-linecap="round" stroke-linejoin="round" stroke-width="1.5" />
            <path id="Vector_11" data-name="Vector 11" d="M0,0H0"
                transform="translate(371.95 220.05) rotate(-90)" fill="none" stroke="#e76f51"
                stroke-linecap="round" stroke-linejoin="round" stroke-width="1.5" />
            <path id="Vector_10" data-name="Vector 10" d="M0,0H0"
                transform="translate(355.95 229.55) rotate(-90)" fill="none" stroke="#e76f51"
                stroke-linecap="round" stroke-linejoin="round" stroke-width="1.5" />
            <path id="Vector_12" data-name="Vector 12" d="M0,0H0"
                transform="translate(355.95 220.05) rotate(-90)" fill="none" stroke="#e76f51"
                stroke-linecap="round" stroke-linejoin="round" stroke-width="1.5" />
            <path id="Vector_6" data-name="Vector 6" d="M0,0H0"
                transform="translate(358.45 215.9) rotate(-90)" fill="none" stroke="#e76f51"
                stroke-linecap="round" stroke-linejoin="round" stroke-width="1.5" />
            <path id="Vector_8" data-name="Vector 8" d="M0,0H0"
                transform="translate(358.45 234.25) rotate(-90)" fill="none" stroke="#e76f51"
                stroke-linecap="round" stroke-linejoin="round" stroke-width="1.5" />
            <path id="Vector_2" data-name="Vector 2" d="M0,0H0"
                transform="translate(363.95 234.55) rotate(-90)" fill="none" stroke="#e76f51"
                stroke-linecap="round" stroke-linejoin="round" stroke-width="2" />
            <path id="Vector_3" data-name="Vector 3" d="M0,0H0"
                transform="translate(353.5 225.05) rotate(-90)" fill="none" stroke="#e76f51"
                stroke-linecap="round" stroke-linejoin="round" stroke-width="2" />
            <path id="Vector_4" data-name="Vector 4" d="M0,0H0"
                transform="translate(374.45 225.05) rotate(-90)" fill="none" stroke="#e76f51"
                stroke-linecap="round" stroke-linejoin="round" stroke-width="2" />
            <path id="Vector-19" data-name="Vector" d="M0,0H24V24H0Z" transform="translate(352 213)"
                fill="none" opacity="0" />
        </g>
    </g>
</svg>
